<svg width="200" height="52" viewBox="0 0 200 52" fill="none" xmlns="http://www.w3.org/2000/svg">
<path d="M7.31824 31.2182C8.01977 31.4094 8.7213 31.5051 9.42284 31.5051C10.8684 31.5051 11.9473 30.9737 12.6594 29.9106C13.3822 28.8371 13.7436 27.3118 13.7436 25.3349C13.7436 23.5278 13.4088 22.1194 12.7392 21.1098C12.0695 20.0999 11.081 19.595 9.77359 19.595C8.94451 19.595 8.12606 19.7704 7.31824 20.1212V31.2182ZM7.4139 8.75319C7.35012 10.3369 7.31824 12.7126 7.31824 15.8801V18.9254C8.94451 17.9262 10.5283 17.4267 12.0695 17.4267C14.0891 17.4267 15.6835 18.1016 16.8527 19.4515C18.0325 20.7908 18.6224 22.5447 18.6224 24.7131C18.6224 27.3596 17.7827 29.4165 16.1033 30.8833C14.4345 32.3502 12.1173 33.0835 9.15179 33.0835C7.29167 33.0835 5.16051 32.7382 2.75829 32.0471C2.77955 30.7822 2.79018 29.0869 2.79018 26.961V17.5064C2.79018 15.1573 2.76892 13.0368 2.72641 11.1448L0.382652 10.507L0.286989 9.85331C2.93367 9.46005 5.25086 9.05082 7.23853 8.62564L7.4139 8.75319ZM32.9082 31.3776C31.3457 32.5255 29.6449 33.0996 27.8061 33.0996C26.0841 33.0996 24.7873 32.6743 23.9159 31.8241C23.0443 30.9737 22.6084 29.7778 22.6084 28.2365V24.8565C22.6084 22.5818 22.5871 20.9078 22.5447 19.8342L20.2647 19.2443L20.169 18.5906C22.7733 18.1973 25.0692 17.7881 27.0567 17.3629L27.2322 17.4904C27.1684 18.8191 27.1365 20.4612 27.1365 22.4171V27.3278C27.1365 28.5927 27.381 29.512 27.8698 30.0861C28.3694 30.6494 29.071 30.931 29.9745 30.931C30.9843 30.931 31.909 30.7133 32.7488 30.2774V23.4853C32.7488 21.9971 32.7276 20.7696 32.6849 19.8023L30.5324 19.2443L30.4369 18.5906C32.9559 18.1973 35.2041 17.7881 37.1812 17.3629L37.3724 17.4904C37.298 18.851 37.2608 20.5251 37.2608 22.5127C37.2608 26.3712 37.2661 28.7255 37.2767 29.5759C37.2873 30.001 37.3194 30.3465 37.3724 30.6122C37.4255 30.8674 37.5265 31.0641 37.6753 31.2022C37.8243 31.3404 38.042 31.4412 38.329 31.5051C38.6267 31.5582 39.0465 31.5902 39.5886 31.6008L39.6684 32.3022C38.1378 32.8337 36.8198 33.0996 35.7143 33.0996C34.29 33.0996 33.3547 32.5255 32.9082 31.3776ZM48.1345 12.0855C48.1345 12.8189 47.8955 13.4141 47.4171 13.8712C46.9494 14.3282 46.3329 14.5568 45.5675 14.5568C44.8661 14.5568 44.2867 14.3442 43.8298 13.919C43.3833 13.4832 43.16 12.9199 43.16 12.229C43.16 11.4743 43.3992 10.879 43.8776 10.4433C44.3559 10.0075 44.9778 9.78956 45.7431 9.78956C46.4445 9.78956 47.0186 9.9915 47.4649 10.3954C47.9114 10.7887 48.1345 11.352 48.1345 12.0855ZM41.1192 18.5906C43.7341 18.1973 46.03 17.7881 48.0069 17.3629L48.1824 17.4904C48.1186 18.9573 48.0867 20.5198 48.0867 22.178V28.1888C48.0867 29.4537 48.0973 30.3359 48.1186 30.8355C48.1398 31.1225 48.2726 31.3031 48.5171 31.3776L50.5102 31.9355L50.558 32.7008C48.9849 32.669 47.4224 32.6531 45.8706 32.6531C44.2867 32.6531 42.7243 32.669 41.1831 32.7008L41.1033 31.9355L43.1282 31.3776C43.3727 31.3139 43.5055 31.1543 43.5267 30.8992C43.548 30.4847 43.5588 29.7886 43.5588 28.8106V23.6767C43.5588 22.2843 43.5373 21.0035 43.4949 19.8342L41.2149 19.2443L41.1192 18.5906ZM51.8175 9.85331C54.4749 9.46005 56.792 9.05082 58.7692 8.62564L58.9445 8.75319C58.8808 10.22 58.8488 11.7825 58.8488 13.4407V28.1888C58.8488 29.4537 58.8594 30.3359 58.8808 30.8355C58.902 31.1225 59.0349 31.3031 59.2794 31.3776L61.2722 31.9355L61.3202 32.7008C59.7469 32.669 58.1845 32.6531 56.6327 32.6531C55.049 32.6531 53.4863 32.669 51.9451 32.7008L51.8655 31.9355L53.8902 31.3776C54.1347 31.3139 54.2675 31.1543 54.289 30.8992C54.3102 30.4847 54.3208 29.7886 54.3208 28.8106V14.9873C54.3208 13.5948 54.2996 12.314 54.2569 11.1448L51.9133 10.507L51.8175 9.85331ZM74.5057 19.4037C73.9318 19.2017 73.2888 19.1008 72.5765 19.1008C71.1204 19.1008 70.0096 19.6057 69.2443 20.6155C68.479 21.6145 68.0963 23.1239 68.0963 25.1435C68.0963 26.8974 68.4365 28.3004 69.1167 29.3527C69.7969 30.4049 70.7537 30.931 71.9865 30.931C72.9008 30.931 73.7404 30.7345 74.5057 30.3412V19.4037ZM71.9865 9.85331C74.5802 9.46005 76.8973 9.05082 78.9382 8.62564L79.1294 8.75319C79.0551 11.0279 79.018 13.4726 79.018 16.0874V24.7608C79.018 26.1533 79.0233 27.5882 79.0339 29.0657C79.0339 29.6078 79.0551 30.0437 79.0976 30.3731C79.14 30.7027 79.2304 30.9578 79.3686 31.1384C79.5173 31.3084 79.7406 31.4253 80.0384 31.4892C80.3359 31.5529 80.7716 31.5902 81.3457 31.6008L81.4412 32.3022C79.8894 32.8337 78.5661 33.0996 77.4712 33.0996C76.0469 33.0996 75.1116 32.5202 74.6651 31.3616C73.2727 32.5202 71.7314 33.0996 70.0414 33.0996C67.9369 33.0996 66.2735 32.4086 65.051 31.0267C63.8286 29.6343 63.2176 27.8965 63.2176 25.8131C63.2176 23.1559 64.0041 21.1043 65.5771 19.6588C67.161 18.2026 69.3718 17.4745 72.2098 17.4745C72.9114 17.4745 73.6767 17.533 74.5057 17.6499C74.5057 15.4071 74.4845 13.2387 74.442 11.1448L72.0982 10.507L71.9865 9.85331ZM107.159 25.558C105.49 25.558 104.3 25.7706 103.587 26.1957C102.875 26.621 102.519 27.349 102.519 28.38C102.519 29.3155 102.769 29.9851 103.269 30.389C103.779 30.7822 104.379 30.979 105.07 30.979C105.857 30.979 106.542 30.7769 107.127 30.3731L107.159 25.558ZM99.3622 18.9732C101.626 17.9422 103.805 17.4267 105.899 17.4267C107.812 17.4267 109.242 17.8571 110.188 18.7181C111.145 19.5685 111.618 20.7961 111.607 22.4012L111.527 29.0339C111.506 29.5759 111.517 30.0116 111.559 30.3412C111.602 30.6706 111.698 30.9257 111.846 31.1065C112.006 31.2765 112.234 31.3988 112.532 31.4733C112.84 31.5476 113.281 31.5902 113.855 31.6008L113.951 32.3343C112.463 32.8445 111.182 33.0996 110.108 33.0996C108.663 33.0996 107.711 32.5308 107.254 31.3935C105.904 32.5308 104.475 33.0996 102.966 33.0996C101.488 33.0996 100.271 32.7329 99.3145 31.9994C98.3578 31.2553 97.8794 30.2137 97.8794 28.8743C97.8794 27.2055 98.65 25.9833 100.191 25.2074C101.743 24.4314 104.066 24.0433 107.159 24.0433L107.175 22.8476C107.185 21.7102 106.909 20.8759 106.346 20.3444C105.793 19.8023 104.927 19.5313 103.747 19.5313C102.652 19.5313 101.339 19.7704 99.8086 20.2487L99.3622 18.9732ZM124.968 19.2283C124.309 19.0689 123.597 18.9892 122.832 18.9892C121.875 18.9892 121.099 19.1592 120.504 19.4994C119.909 19.8395 119.611 20.3231 119.611 20.9502C119.611 21.4286 119.744 21.7953 120.01 22.0504C120.275 22.2949 120.727 22.5288 121.365 22.7518L123.9 23.6447C125.399 24.1655 126.499 24.8033 127.2 25.558C127.902 26.302 128.253 27.1684 128.253 28.1569C128.253 29.7194 127.588 30.9365 126.26 31.808C124.942 32.669 123.214 33.0996 121.078 33.0996C119.292 33.0996 117.538 32.7329 115.816 31.9994C116.178 30.5751 116.475 29.1933 116.709 27.8539L117.522 27.7263L118.67 31.2022C119.308 31.4253 120.111 31.5369 121.078 31.5369C121.992 31.5369 122.725 31.3616 123.278 31.0108C123.841 30.66 124.123 30.1712 124.123 29.5441C124.123 29.0233 123.953 28.5927 123.613 28.2527C123.273 27.9018 122.592 27.551 121.572 27.2002L119.659 26.5306C118.415 26.0949 117.48 25.5261 116.853 24.8247C116.226 24.1125 115.912 23.2514 115.912 22.2416C115.912 20.6898 116.529 19.4994 117.761 18.6703C118.994 17.8412 120.684 17.4267 122.832 17.4267C124.596 17.4267 126.19 17.6871 127.615 18.2079C127.296 19.6004 127.025 20.9184 126.802 22.162L125.925 22.2896L124.968 19.2283ZM128.89 17.7934C130.304 17.8253 131.585 17.8412 132.733 17.8412C134.221 17.8412 135.805 17.8253 137.484 17.7934L137.564 18.5587L135.571 19.0689C135.985 20.1106 136.379 21.1043 136.751 22.0504C137.123 22.9963 137.617 24.1923 138.233 25.6378C138.51 26.2437 138.807 26.9504 139.126 27.7584C139.445 26.9292 139.769 26.1055 140.099 25.2869C140.96 23.0229 141.752 20.9396 142.474 19.037L140.816 18.5587L140.737 17.7934C141.566 17.8253 142.544 17.8412 143.67 17.8412C144.648 17.8412 145.583 17.8253 146.476 17.7934L146.556 18.5587L145.026 18.9732C144.685 19.0795 144.441 19.2974 144.292 19.6269C143.92 20.5092 143.506 21.4869 143.049 22.5606C141.667 25.8663 140.593 28.6086 139.828 30.7876C139.339 32.2012 138.898 33.6416 138.504 35.1084C138.111 36.5859 137.798 37.8827 137.564 38.9988C137.447 39.6045 137.229 40.0192 136.91 40.2425C136.591 40.4655 135.874 40.5771 134.758 40.5771C133.588 40.5771 132.472 40.5347 131.409 40.4496L131.33 39.7161C132.563 39.5567 133.424 39.2165 133.913 38.6957C134.614 37.9625 135.693 35.9853 137.149 32.7647L137.261 32.4616L136.416 32.2227C134.502 27.4927 132.765 23.2994 131.202 19.6429C131.075 19.3134 130.836 19.0955 130.485 18.9892L128.954 18.5587L128.89 17.7934ZM149.781 29.2451C150.323 29.2451 150.769 29.4165 151.12 29.7592C151.479 30.0941 151.658 30.5404 151.658 31.0986C151.658 31.6486 151.479 32.099 151.12 32.4498C150.769 32.8006 150.323 32.9759 149.781 32.9759C149.215 32.9759 148.756 32.8006 148.406 32.4498C148.055 32.099 147.879 31.6486 147.879 31.0986C147.879 30.5404 148.055 30.0941 148.406 29.7592C148.756 29.4165 149.215 29.2451 149.781 29.2451ZM153.536 21.5682C154.548 21.592 155.453 21.6039 156.25 21.6039C156.848 21.6039 157.601 21.592 158.51 21.5682L158.558 22.0584L157.494 22.3335C158.004 23.2023 158.689 24.3304 159.55 25.7176C160.403 24.458 161.149 23.3378 161.787 22.3574L160.77 22.0584L160.71 21.5682C161.38 21.592 161.974 21.6039 162.492 21.6039C163.202 21.6039 163.859 21.592 164.465 21.5682L164.525 22.0584L163.389 22.3692C163.182 22.4251 162.99 22.5725 162.815 22.8116C161.978 23.9198 161.073 25.1874 160.1 26.6143C161.145 28.2963 162.165 29.8908 163.162 31.3976C163.313 31.6286 163.52 31.7882 163.783 31.8757L164.824 32.1986L164.872 32.689C163.867 32.6651 162.966 32.6531 162.169 32.6531C161.571 32.6531 160.818 32.6651 159.909 32.689L159.861 32.1986L160.902 31.9237C160.272 30.9271 159.514 29.7153 158.63 28.2884C157.753 29.5718 156.951 30.7757 156.226 31.8998L157.242 32.1986L157.29 32.689C156.637 32.6651 156.055 32.6531 155.544 32.6531C154.835 32.6531 154.126 32.6651 153.416 32.689L153.368 32.1986L154.528 31.8878C154.783 31.8159 155.018 31.6406 155.234 31.3616C156.11 30.1898 157.055 28.8584 158.068 27.3678C157.055 25.7255 156.122 24.2347 155.269 22.8955C155.11 22.6484 154.895 22.4769 154.624 22.3812L153.583 22.0584L153.536 21.5682ZM164.561 21.5682C165.565 21.592 166.458 21.6039 167.239 21.6039C167.773 21.6039 168.627 21.592 169.798 21.5682L169.846 22.0584L168.447 22.441C168.742 23.278 169.085 24.2029 169.476 25.2153C169.866 26.2198 170.281 27.268 170.719 28.3602C170.902 28.8145 171.102 29.3367 171.317 29.9267C171.54 29.3288 171.779 28.719 172.034 28.0971C172.409 27.1725 172.772 26.2635 173.123 25.3706C173.473 24.4698 173.836 23.4933 174.211 22.441L172.848 22.0584L172.8 21.5682C173.39 21.592 174.079 21.6039 174.868 21.6039C175.578 21.6039 176.268 21.592 176.937 21.5682L176.997 22.0584L175.885 22.3692C175.638 22.449 175.458 22.6125 175.347 22.8596C175.052 23.5371 174.733 24.2786 174.39 25.0837C173.338 27.5551 172.541 29.5798 171.999 31.1584C171.632 32.2265 171.301 33.3188 171.006 34.4347C170.711 35.5588 170.484 36.5235 170.324 37.3286C170.253 37.7192 170.105 38.0143 169.882 38.2135C169.667 38.4208 169.157 38.5245 168.351 38.5245C167.53 38.5245 166.733 38.4965 165.96 38.4406L165.9 37.9743C166.777 37.8388 167.427 37.5557 167.849 37.1253C168.359 36.5753 169.149 35.1125 170.217 32.7367L170.312 32.5096L170.145 32.4616C168.686 28.8265 167.367 25.6298 166.187 22.8714C166.083 22.6323 165.9 22.469 165.637 22.3812L164.585 22.0584L164.561 21.5682ZM177.595 32.5455C178.95 30.5922 180.078 28.95 180.979 27.6188C181.88 26.2876 183.012 24.5935 184.375 22.5367H179.699L178.922 24.9402L178.444 25.0239C178.261 23.7802 178.061 22.6643 177.846 21.6757L177.882 21.5682C179.508 21.592 181.079 21.6039 182.593 21.6039C184.124 21.6039 185.718 21.592 187.377 21.5682L187.46 21.6996C186.304 23.4057 185.196 25.0478 184.136 26.6263C183.076 28.2047 181.96 29.8947 180.788 31.6963H185.547L187.042 29.2092L187.532 29.1374C187.404 30.2614 187.309 31.4174 187.245 32.6053L187.173 32.689C185.794 32.6651 184.176 32.6531 182.318 32.6531C180.628 32.6531 179.082 32.6651 177.679 32.689L177.595 32.5455Z" fill="#333333"/>
<path d="M99.5614 24.3969C98.7494 26.8871 97.4284 29.0469 95.5988 30.8767C93.4208 33.0545 91.1049 34.2996 88.6504 34.612C86.1959 34.9065 83.92 34.0051 81.8225 31.9076C79.8233 29.9084 78.8549 27.619 78.9174 25.0396C78.9798 22.4423 80.0376 20.1173 82.0902 18.0645C83.8843 16.2705 85.7541 15.3735 87.6998 15.3735C89.6455 15.3557 91.4708 16.1991 93.1755 17.9038C93.4343 18.1627 93.6886 18.4438 93.9386 18.7473L85.3837 27.3023C87.1778 29.0961 88.9047 29.9486 90.5649 29.8592C92.2339 29.761 94.0725 28.708 96.0806 26.6996C97.0535 25.7269 97.8969 24.7139 98.611 23.6606L99.5614 24.3969ZM88.6102 21.4784L88.289 21.1571C87.0751 19.9433 86.0486 19.2293 85.2096 19.015C84.3796 18.7919 83.6478 18.9972 83.0141 19.6309C82.2553 20.3895 82.0145 21.3625 82.291 22.5494C82.5678 23.7186 83.1837 24.8523 84.1386 25.95L88.6102 21.4784Z" fill="#EA2828"/>
<path d="M0.275919 46.3551C0.275919 46.2631 0.291837 46.1765 0.323674 46.0951C0.359048 46.0137 0.405035 45.9431 0.461633 45.8828C0.52177 45.8226 0.592517 45.7749 0.673878 45.7396C0.755239 45.7043 0.841905 45.6865 0.933878 45.6865C1.02585 45.6865 1.11252 45.7043 1.19388 45.7396C1.27524 45.7749 1.34599 45.8226 1.40612 45.8828C1.46626 45.9431 1.51401 46.0137 1.54939 46.0951C1.58476 46.1765 1.60245 46.2631 1.60245 46.3551C1.60245 46.4506 1.58476 46.539 1.54939 46.6204C1.51401 46.6982 1.46626 46.7671 1.40612 46.8273C1.34599 46.8875 1.27524 46.9335 1.19388 46.9653C1.11252 47.0006 1.02585 47.0184 0.933878 47.0184C0.841905 47.0184 0.755239 47.0006 0.673878 46.9653C0.592517 46.9335 0.52177 46.8875 0.461633 46.8273C0.405035 46.7671 0.359048 46.6982 0.323674 46.6204C0.291837 46.539 0.275919 46.4506 0.275919 46.3551ZM2.76316 46.3551C2.76316 46.2631 2.77908 46.1765 2.81092 46.0951C2.84629 46.0137 2.89229 45.9431 2.94888 45.8828C3.00902 45.8226 3.07976 45.7749 3.16112 45.7396C3.24249 45.7043 3.32914 45.6865 3.42112 45.6865C3.5131 45.6865 3.59976 45.7043 3.68112 45.7396C3.76249 45.7749 3.83323 45.8226 3.89337 45.8828C3.95351 45.9431 4.00127 46.0137 4.03663 46.0951C4.072 46.1765 4.08969 46.2631 4.08969 46.3551C4.08969 46.4506 4.072 46.539 4.03663 46.6204C4.00127 46.6982 3.95351 46.7671 3.89337 46.8273C3.83323 46.8875 3.76249 46.9335 3.68112 46.9653C3.59976 47.0006 3.5131 47.0184 3.42112 47.0184C3.32914 47.0184 3.24249 47.0006 3.16112 46.9653C3.07976 46.9335 3.00902 46.8875 2.94888 46.8273C2.89229 46.7671 2.84629 46.6982 2.81092 46.6204C2.77908 46.539 2.76316 46.4506 2.76316 46.3551ZM5.25041 46.3551C5.25041 46.2631 5.26633 46.1765 5.29816 46.0951C5.33353 46.0137 5.37953 45.9431 5.43612 45.8828C5.49627 45.8226 5.567 45.7749 5.64837 45.7396C5.72974 45.7043 5.81639 45.6865 5.90837 45.6865C6.00035 45.6865 6.087 45.7043 6.16837 45.7396C6.24974 45.7749 6.32047 45.8226 6.38061 45.8828C6.44076 45.9431 6.48851 46.0137 6.52388 46.0951C6.55925 46.1765 6.57694 46.2631 6.57694 46.3551C6.57694 46.4506 6.55925 46.539 6.52388 46.6204C6.48851 46.6982 6.44076 46.7671 6.38061 46.8273C6.32047 46.8875 6.24974 46.9335 6.16837 46.9653C6.087 47.0006 6.00035 47.0184 5.90837 47.0184C5.81639 47.0184 5.72974 47.0006 5.64837 46.9653C5.567 46.9335 5.49627 46.8875 5.43612 46.8273C5.37953 46.7671 5.33353 46.6982 5.29816 46.6204C5.26633 46.539 5.25041 46.4506 5.25041 46.3551ZM10.5075 42.1686C10.2846 42.1686 10.0794 42.2145 9.89194 42.3065C9.70445 42.3986 9.53821 42.5259 9.39317 42.6886C9.24812 42.8477 9.12433 43.0369 9.02174 43.2563C8.91914 43.472 8.83955 43.7055 8.78296 43.9567C9.32772 43.8896 9.76459 43.8135 10.0936 43.7286C10.4226 43.6402 10.6755 43.5463 10.8523 43.4473C11.0292 43.3447 11.146 43.2351 11.2026 43.1184C11.2591 43.0016 11.2875 42.8796 11.2875 42.7522C11.2875 42.6886 11.2733 42.6231 11.245 42.5559C11.2167 42.4851 11.1707 42.4214 11.107 42.3649C11.0469 42.3084 10.9673 42.2622 10.8683 42.2269C10.7692 42.188 10.6489 42.1686 10.5075 42.1686ZM12.0038 45.9465C11.8234 46.1341 11.6465 46.2949 11.4732 46.4294C11.2998 46.5602 11.123 46.67 10.9426 46.7584C10.7657 46.8467 10.5782 46.9104 10.3801 46.9494C10.1856 46.9918 9.97506 47.0131 9.74868 47.0131C9.44092 47.0131 9.165 46.9618 8.92092 46.8592C8.67684 46.7565 8.4699 46.6116 8.3001 46.4241C8.13031 46.2331 7.99943 46.0031 7.90745 45.7343C7.81547 45.4655 7.76949 45.1647 7.76949 44.8322C7.76949 44.5563 7.7978 44.2822 7.85439 44.0098C7.91453 43.7339 7.99943 43.472 8.10908 43.2245C8.22229 42.9769 8.35847 42.7469 8.51765 42.5347C8.68037 42.3224 8.86433 42.1402 9.06949 41.9882C9.2782 41.8324 9.50637 41.7104 9.75398 41.622C10.0051 41.5337 10.274 41.4894 10.5605 41.4894C10.8329 41.4894 11.0681 41.5284 11.2662 41.6061C11.4643 41.6839 11.627 41.7831 11.7544 41.9033C11.8817 42.0235 11.9755 42.1561 12.0356 42.3012C12.0993 42.4463 12.1311 42.5843 12.1311 42.7151C12.1311 42.9486 12.0834 43.1643 11.9879 43.3624C11.8923 43.5569 11.7172 43.7339 11.4626 43.8931C11.2079 44.0488 10.8577 44.1849 10.4119 44.3016C9.96623 44.4184 9.39316 44.512 8.69276 44.5828C8.69276 44.6218 8.69098 44.6606 8.68745 44.6996C8.68745 44.7349 8.68745 44.772 8.68745 44.811C8.68745 45.2851 8.79004 45.6475 8.99521 45.8988C9.20392 46.1463 9.51698 46.2702 9.93439 46.2702C10.1042 46.2702 10.2545 46.2524 10.3854 46.2171C10.5198 46.1818 10.6383 46.1394 10.7409 46.0898C10.847 46.0367 10.939 45.9802 11.0168 45.92C11.0982 45.8563 11.1707 45.7998 11.2344 45.7502C11.3016 45.6971 11.3635 45.6528 11.4201 45.6175C11.4767 45.5822 11.5333 45.5645 11.5899 45.5645C11.6571 45.5645 11.7172 45.5945 11.7703 45.6547L12.0038 45.9465ZM16.5354 42.2216C16.4576 42.2039 16.3797 42.1933 16.3019 42.1898C16.2276 42.1826 16.1533 42.1792 16.079 42.1792C15.8668 42.1792 15.6616 42.2145 15.4635 42.2853C15.2654 42.3524 15.0797 42.448 14.9064 42.5718C14.7331 42.6957 14.5756 42.8443 14.4341 43.0175C14.2927 43.1873 14.1706 43.3749 14.068 43.58C13.969 43.7851 13.8911 44.0045 13.8346 44.2379C13.778 44.4679 13.7497 44.7049 13.7497 44.949C13.7497 45.8014 14.022 46.2277 14.5668 46.2277C14.7401 46.2277 14.9099 46.1747 15.0762 46.0686C15.2425 45.959 15.3999 45.8086 15.5484 45.6175C15.7005 45.4231 15.8403 45.1949 15.9676 44.9331C16.095 44.6677 16.2082 44.3777 16.3072 44.0628L16.5354 42.2216ZM16.1746 45.522C16.0472 45.7484 15.9092 45.9537 15.7607 46.1375C15.6156 46.3214 15.46 46.479 15.2937 46.6098C15.131 46.7371 14.9577 46.8361 14.7737 46.9069C14.5933 46.9777 14.4058 47.0131 14.2113 47.0131C13.999 47.0131 13.8062 46.9724 13.6329 46.891C13.4596 46.8061 13.311 46.6841 13.1872 46.5249C13.0669 46.3622 12.9732 46.1641 12.906 45.9306C12.8388 45.6937 12.8052 45.4231 12.8052 45.1188C12.8052 44.8004 12.8441 44.4908 12.9219 44.1902C13.0033 43.8859 13.1165 43.5994 13.2615 43.3306C13.4101 43.0618 13.5869 42.8159 13.7921 42.5931C13.9973 42.3667 14.2254 42.172 14.4766 42.0094C14.7313 41.8431 15.0037 41.7157 15.2937 41.6273C15.5838 41.5353 15.888 41.4894 16.2064 41.4894C16.4363 41.4894 16.6592 41.5088 16.875 41.5477C17.0943 41.5831 17.3101 41.6467 17.5223 41.7388L16.8803 46.9388H16.3921C16.2683 46.9388 16.1834 46.9069 16.1374 46.8433C16.095 46.7796 16.0737 46.7018 16.0737 46.6098L16.1746 45.522ZM21.738 42.4233C21.7096 42.4657 21.6814 42.4975 21.6531 42.5188C21.6247 42.5365 21.5894 42.5453 21.5469 42.5453C21.4974 42.5453 21.4427 42.5259 21.3825 42.4869C21.3259 42.4479 21.2551 42.4055 21.1702 42.3596C21.0888 42.31 20.988 42.2659 20.8678 42.2269C20.7476 42.1845 20.6025 42.1633 20.4327 42.1633C20.2735 42.1633 20.1284 42.1863 19.9975 42.2322C19.8667 42.2747 19.7535 42.3349 19.6579 42.4126C19.566 42.4904 19.4935 42.5824 19.4404 42.6886C19.3909 42.7912 19.3661 42.9008 19.3661 43.0175C19.3661 43.1839 19.4209 43.3165 19.5306 43.4155C19.6402 43.5145 19.7782 43.6012 19.9445 43.6755C20.1107 43.7463 20.2894 43.8153 20.4804 43.8824C20.6714 43.9496 20.85 44.0345 21.0163 44.1371C21.1827 44.2398 21.3206 44.3706 21.4302 44.5298C21.5398 44.689 21.5947 44.8959 21.5947 45.1506C21.5947 45.3982 21.5451 45.6353 21.4461 45.8616C21.3506 46.088 21.2108 46.288 21.0269 46.4612C20.8465 46.631 20.6271 46.7671 20.369 46.8698C20.1143 46.9724 19.8277 47.0237 19.5094 47.0237C19.1662 47.0237 18.862 46.9635 18.5967 46.8433C18.3349 46.7194 18.1209 46.562 17.9547 46.371L18.1881 46.0102C18.22 45.9643 18.2536 45.9288 18.289 45.9041C18.3279 45.8794 18.3774 45.8669 18.4375 45.8669C18.4941 45.8669 18.5507 45.8916 18.6073 45.9412C18.6639 45.9908 18.7347 46.0473 18.8196 46.111C18.9045 46.1712 19.0106 46.2259 19.1379 46.2755C19.2688 46.3251 19.4333 46.3498 19.6314 46.3498C19.8047 46.3498 19.9604 46.3233 20.0984 46.2702C20.2398 46.2171 20.3584 46.1463 20.4539 46.0579C20.5529 45.9696 20.6271 45.8669 20.6767 45.7502C20.7298 45.63 20.7563 45.5026 20.7563 45.3682C20.7563 45.1877 20.7014 45.0445 20.5918 44.9384C20.4822 44.8322 20.3442 44.7439 20.1779 44.673C20.0117 44.6022 19.833 44.5369 19.642 44.4767C19.451 44.4131 19.2724 44.3335 19.1061 44.2379C18.9398 44.139 18.8019 44.0116 18.6922 43.8559C18.5826 43.7002 18.5277 43.4933 18.5277 43.2351C18.5277 43.0088 18.572 42.7912 18.6604 42.5824C18.7524 42.3702 18.8832 42.1826 19.053 42.02C19.2228 41.8573 19.428 41.7282 19.6686 41.6326C19.9126 41.5337 20.1868 41.4841 20.491 41.4841C20.8129 41.4841 21.0959 41.539 21.34 41.6486C21.5876 41.7547 21.7998 41.8998 21.9767 42.0837L21.738 42.4233ZM24.151 41.5637L23.5037 46.9388H22.5751L23.2225 41.5637H24.151ZM24.5118 39.8763C24.5118 39.9684 24.4925 40.0549 24.4535 40.1363C24.4182 40.2141 24.3686 40.2849 24.3049 40.3486C24.2449 40.4088 24.1741 40.4565 24.0927 40.4918C24.0149 40.5271 23.9335 40.5449 23.8486 40.5449C23.7673 40.5449 23.6878 40.5271 23.6098 40.4918C23.532 40.4565 23.4631 40.4088 23.4029 40.3486C23.3463 40.2849 23.3004 40.2141 23.2649 40.1363C23.2296 40.0549 23.2118 39.9684 23.2118 39.8763C23.2118 39.7843 23.2296 39.6977 23.2649 39.6163C23.3004 39.5349 23.3482 39.4643 23.4082 39.4041C23.4684 39.3404 23.5373 39.2908 23.6151 39.2555C23.6931 39.2165 23.7727 39.1971 23.8539 39.1971C23.9388 39.1971 24.0202 39.2149 24.098 39.2502C24.1794 39.2855 24.2502 39.3351 24.3102 39.3988C24.3704 39.459 24.4182 39.5314 24.4535 39.6163C24.4925 39.6977 24.5118 39.7843 24.5118 39.8763ZM27.7006 42.1686C27.4778 42.1686 27.2725 42.2145 27.0851 42.3065C26.8976 42.3986 26.7312 42.5259 26.5863 42.6886C26.4412 42.8477 26.3174 43.0369 26.2149 43.2563C26.1122 43.472 26.0327 43.7055 25.9761 43.9567C26.5208 43.8896 26.9578 43.8135 27.2867 43.7286C27.6157 43.6402 27.8686 43.5463 28.0455 43.4473C28.2222 43.3447 28.339 43.2351 28.3957 43.1184C28.4522 43.0016 28.4806 42.8796 28.4806 42.7522C28.4806 42.6886 28.4663 42.6231 28.4382 42.5559C28.4098 42.4851 28.3639 42.4214 28.3002 42.3649C28.24 42.3084 28.1604 42.2622 28.0614 42.2269C27.9622 42.188 27.842 42.1686 27.7006 42.1686ZM29.1969 45.9465C29.0165 46.1341 28.8396 46.2949 28.6663 46.4294C28.4929 46.5602 28.3161 46.67 28.1357 46.7584C27.9588 46.8467 27.7712 46.9104 27.5733 46.9494C27.3786 46.9918 27.1682 47.0131 26.9418 47.0131C26.6341 47.0131 26.3582 46.9618 26.1141 46.8592C25.87 46.7565 25.6631 46.6116 25.4933 46.4241C25.3235 46.2331 25.1925 46.0031 25.1006 45.7343C25.0086 45.4655 24.9627 45.1647 24.9627 44.8322C24.9627 44.5563 24.9908 44.2822 25.0476 44.0098C25.1076 43.7339 25.1925 43.472 25.3022 43.2245C25.4153 42.9769 25.5516 42.7469 25.7108 42.5347C25.8735 42.3224 26.0574 42.1402 26.2627 41.9882C26.4712 41.8324 26.6994 41.7104 26.9471 41.622C27.1982 41.5337 27.4671 41.4894 27.7537 41.4894C28.0259 41.4894 28.2612 41.5284 28.4594 41.6061C28.6574 41.6839 28.8202 41.7831 28.9476 41.9033C29.0749 42.0235 29.1686 42.1561 29.2288 42.3012C29.2925 42.4463 29.3243 42.5843 29.3243 42.7151C29.3243 42.9486 29.2765 43.1643 29.181 43.3624C29.0855 43.5569 28.9104 43.7339 28.6557 43.8931C28.401 44.0488 28.0508 44.1849 27.6051 44.3016C27.1594 44.4184 26.5863 44.512 25.8859 44.5828C25.8859 44.6218 25.8841 44.6606 25.8806 44.6996C25.8806 44.7349 25.8806 44.772 25.8806 44.811C25.8806 45.2851 25.9831 45.6475 26.1884 45.8988C26.3969 46.1463 26.71 46.2702 27.1276 46.2702C27.2973 46.2702 27.4476 46.2524 27.5786 46.2171C27.7129 46.1818 27.8314 46.1394 27.9341 46.0898C28.0402 46.0367 28.132 45.9802 28.21 45.92C28.2912 45.8563 28.3639 45.7998 28.4276 45.7502C28.4947 45.6971 28.5565 45.6528 28.6133 45.6175C28.6698 45.5822 28.7263 45.5645 28.7831 45.5645C28.8502 45.5645 28.9104 45.5945 28.9635 45.6547L29.1969 45.9465ZM33.5108 42.4233C33.4827 42.4657 33.4543 42.4975 33.4259 42.5188C33.3978 42.5365 33.3622 42.5453 33.3198 42.5453C33.2704 42.5453 33.2155 42.5259 33.1553 42.4869C33.0988 42.4479 33.028 42.4055 32.9431 42.3596C32.8618 42.31 32.761 42.2659 32.6406 42.2269C32.5204 42.1845 32.3753 42.1633 32.2055 42.1633C32.0463 42.1633 31.9014 42.1863 31.7704 42.2322C31.6396 42.2747 31.5263 42.3349 31.4308 42.4126C31.339 42.4904 31.2663 42.5824 31.2133 42.6886C31.1639 42.7912 31.139 42.9008 31.139 43.0175C31.139 43.1839 31.1939 43.3165 31.3035 43.4155C31.4133 43.5145 31.5512 43.6012 31.7174 43.6755C31.8837 43.7463 32.0623 43.8153 32.2533 43.8824C32.4443 43.9496 32.6231 44.0345 32.7892 44.1371C32.9555 44.2398 33.0935 44.3706 33.2031 44.5298C33.3129 44.689 33.3676 44.8959 33.3676 45.1506C33.3676 45.3982 33.3182 45.6353 33.219 45.8616C33.1235 46.088 32.9839 46.288 32.7998 46.4612C32.6194 46.631 32.4002 46.7671 32.1418 46.8698C31.8871 46.9724 31.6006 47.0237 31.2823 47.0237C30.9392 47.0237 30.6349 46.9635 30.3696 46.8433C30.108 46.7194 29.8939 46.562 29.7276 46.371L29.961 46.0102C29.9929 45.9643 30.0265 45.9288 30.0618 45.9041C30.1008 45.8794 30.1504 45.8669 30.2104 45.8669C30.2671 45.8669 30.3237 45.8916 30.3802 45.9412C30.4369 45.9908 30.5076 46.0473 30.5925 46.111C30.6774 46.1712 30.7835 46.2259 30.9108 46.2755C31.0418 46.3251 31.2063 46.3498 31.4043 46.3498C31.5778 46.3498 31.7333 46.3233 31.8712 46.2702C32.0129 46.2171 32.1312 46.1463 32.2267 46.0579C32.3259 45.9696 32.4002 45.8669 32.4496 45.7502C32.5027 45.63 32.5292 45.5026 32.5292 45.3682C32.5292 45.1877 32.4745 45.0445 32.3647 44.9384C32.2551 44.8322 32.1171 44.7439 31.9508 44.673C31.7847 44.6022 31.6059 44.5369 31.4149 44.4767C31.2239 44.4131 31.0453 44.3335 30.879 44.2379C30.7129 44.139 30.5749 44.0116 30.4651 43.8559C30.3555 43.7002 30.3006 43.4933 30.3006 43.2351C30.3006 43.0088 30.3449 42.7912 30.4333 42.5824C30.5253 42.3702 30.6561 42.1826 30.8259 42.02C30.9957 41.8573 31.201 41.7282 31.4414 41.6326C31.6855 41.5337 31.9598 41.4841 32.2639 41.4841C32.5859 41.4841 32.8688 41.539 33.1129 41.6486C33.3606 41.7547 33.5729 41.8998 33.7496 42.0837L33.5108 42.4233ZM34.7196 45.9253C34.7196 45.9041 34.7196 45.8775 34.7196 45.8457C34.7196 45.8104 34.7212 45.7608 34.7249 45.6971C34.7318 45.6335 34.7408 45.5504 34.7514 45.4477C34.7655 45.3451 34.7833 45.2108 34.8045 45.0445L35.1335 42.3543H34.5339C34.4843 42.3543 34.4437 42.3384 34.4118 42.3065C34.3835 42.2712 34.3729 42.2182 34.38 42.1473L34.4225 41.7706L35.2502 41.6592L35.6535 39.9984C35.671 39.9453 35.6976 39.9028 35.7331 39.871C35.7718 39.8357 35.8196 39.8179 35.8763 39.8179H36.3698L36.1416 41.6698H37.5531L37.4735 42.3543H36.0567L35.7331 44.9967C35.7153 45.1418 35.7012 45.2586 35.6906 45.3469C35.68 45.4353 35.671 45.5061 35.6641 45.5592C35.6604 45.6122 35.6569 45.6494 35.6535 45.6706C35.6535 45.6918 35.6535 45.7077 35.6535 45.7184C35.6535 45.8988 35.6959 46.0333 35.7808 46.1216C35.8657 46.2065 35.9788 46.249 36.1204 46.249C36.2159 46.249 36.2971 46.2365 36.3645 46.2118C36.4351 46.1835 36.4971 46.1535 36.5502 46.1216C36.6033 46.0898 36.6473 46.0614 36.6829 46.0367C36.7182 46.0084 36.7482 45.9943 36.7731 45.9943C36.8049 45.9943 36.8278 46.0014 36.842 46.0155C36.8596 46.0296 36.8755 46.0526 36.8898 46.0845L37.0914 46.5355C36.918 46.6875 36.72 46.808 36.4971 46.8963C36.2778 46.9812 36.0567 47.0237 35.8339 47.0237C35.4906 47.0237 35.22 46.93 35.022 46.7424C34.8274 46.5549 34.7265 46.2826 34.7196 45.9253ZM47.8904 41.5637L45.6353 46.9388H44.919C44.8341 46.9388 44.781 46.8786 44.7598 46.7584L44.1071 43.1131C44.1 43.0528 44.0931 42.9963 44.0859 42.9433C44.0825 42.8867 44.0771 42.8284 44.07 42.7682C44.031 42.8849 43.9886 43.0016 43.9427 43.1184L42.3933 46.7584C42.3437 46.8786 42.2712 46.9388 42.1757 46.9388H41.4859L40.5414 41.5637H41.2471C41.318 41.5637 41.3745 41.5814 41.4169 41.6167C41.4594 41.652 41.4878 41.6998 41.5018 41.76L41.9953 45.2196C42.0025 45.3435 42.0094 45.4637 42.0165 45.5804C42.0237 45.6971 42.029 45.812 42.0325 45.9253C42.0714 45.812 42.1139 45.6971 42.1598 45.5804C42.2057 45.4637 42.2535 45.3435 42.3031 45.2196L43.7729 41.7388C43.7906 41.6857 43.8241 41.6414 43.8737 41.6061C43.9233 41.5708 43.978 41.5531 44.0382 41.5531H44.4308C44.498 41.5531 44.551 41.5708 44.59 41.6061C44.629 41.6414 44.6518 41.6857 44.659 41.7388L45.2639 45.2196C45.2816 45.3435 45.2976 45.4637 45.3116 45.5804C45.3257 45.6937 45.3382 45.8086 45.3488 45.9253C45.3806 45.812 45.4143 45.6971 45.4496 45.5804C45.4886 45.4637 45.5292 45.3435 45.5716 45.2196L46.9353 41.76C46.9531 41.7035 46.9865 41.6573 47.0361 41.622C47.0892 41.5831 47.1457 41.5637 47.2059 41.5637H47.8904ZM51.6782 42.2216C51.6002 42.2039 51.5225 42.1933 51.4447 42.1898C51.3704 42.1826 51.2961 42.1792 51.2218 42.1792C51.0096 42.1792 50.8043 42.2145 50.6063 42.2853C50.4082 42.3524 50.2225 42.448 50.0492 42.5718C49.8757 42.6957 49.7184 42.8443 49.5769 43.0175C49.4353 43.1873 49.3133 43.3749 49.2108 43.58C49.1116 43.7851 49.0339 44.0045 48.9774 44.2379C48.9206 44.4679 48.8925 44.7049 48.8925 44.949C48.8925 45.8014 49.1647 46.2277 49.7096 46.2277C49.8829 46.2277 50.0527 46.1747 50.219 46.0686C50.3851 45.959 50.5427 45.8086 50.6912 45.6175C50.8433 45.4231 50.9831 45.1949 51.1104 44.9331C51.2378 44.6677 51.3508 44.3777 51.45 44.0628L51.6782 42.2216ZM51.3174 45.522C51.19 45.7484 51.052 45.9537 50.9035 46.1375C50.7584 46.3214 50.6027 46.479 50.4365 46.6098C50.2737 46.7371 50.1004 46.8361 49.9165 46.9069C49.7361 46.9777 49.5486 47.0131 49.3541 47.0131C49.1418 47.0131 48.949 46.9724 48.7757 46.891C48.6023 46.8061 48.4537 46.6841 48.33 46.5249C48.2096 46.3622 48.1159 46.1641 48.0488 45.9306C47.9814 45.6937 47.948 45.4231 47.948 45.1188C47.948 44.8004 47.9867 44.4908 48.0647 44.1902C48.1459 43.8859 48.2592 43.5994 48.4043 43.3306C48.5529 43.0618 48.7296 42.8159 48.9349 42.5931C49.14 42.3667 49.3682 42.172 49.6194 42.0094C49.8741 41.8431 50.1463 41.7157 50.4365 41.6273C50.7265 41.5353 51.0308 41.4894 51.3492 41.4894C51.579 41.4894 51.8018 41.5088 52.0178 41.5477C52.2369 41.5831 52.4529 41.6467 52.6651 41.7388L52.0231 46.9388H51.5349C51.411 46.9388 51.3261 46.9069 51.2802 46.8433C51.2378 46.7796 51.2165 46.7018 51.2165 46.6098L51.3174 45.522ZM58.3663 41.5637L54.7369 48.5412C54.698 48.6155 54.652 48.6704 54.599 48.7057C54.5494 48.741 54.4857 48.7588 54.408 48.7588H53.7129L54.8802 46.6204L53.4847 41.5637H54.2647C54.3425 41.5637 54.3992 41.5831 54.4345 41.622C54.4698 41.6573 54.4963 41.7035 54.5141 41.76L55.379 45.1453C55.3967 45.2196 55.4108 45.2939 55.4214 45.3682C55.432 45.4424 55.4408 45.5167 55.448 45.591C55.4798 45.5167 55.5116 45.4424 55.5435 45.3682C55.5753 45.2904 55.609 45.2143 55.6443 45.14L57.3423 41.7494C57.3706 41.6928 57.4094 41.6486 57.459 41.6167C57.512 41.5814 57.5651 41.5637 57.6182 41.5637H58.3663ZM61.0947 45.9253C61.0947 45.9041 61.0947 45.8775 61.0947 45.8457C61.0947 45.8104 61.0965 45.7608 61.1 45.6971C61.1071 45.6335 61.1159 45.5504 61.1265 45.4477C61.1406 45.3451 61.1584 45.2108 61.1796 45.0445L61.5086 42.3543H60.909C60.8594 42.3543 60.8188 42.3384 60.7869 42.3065C60.7586 42.2712 60.748 42.2182 60.7551 42.1473L60.7976 41.7706L61.6253 41.6592L62.0286 39.9984C62.0463 39.9453 62.0729 39.9028 62.1082 39.871C62.1472 39.8357 62.1949 39.8179 62.2514 39.8179H62.7449L62.5167 41.6698H63.9282L63.8486 42.3543H62.4318L62.1082 44.9967C62.0904 45.1418 62.0763 45.2586 62.0657 45.3469C62.0551 45.4353 62.0463 45.5061 62.0392 45.5592C62.0357 45.6122 62.032 45.6494 62.0286 45.6706C62.0286 45.6918 62.0286 45.7077 62.0286 45.7184C62.0286 45.8988 62.071 46.0333 62.1559 46.1216C62.2408 46.2065 62.3541 46.249 62.4955 46.249C62.591 46.249 62.6725 46.2365 62.7396 46.2118C62.8104 46.1835 62.8723 46.1535 62.9253 46.1216C62.9784 46.0898 63.0227 46.0614 63.058 46.0367C63.0933 46.0084 63.1235 45.9943 63.1482 45.9943C63.18 45.9943 63.2031 46.0014 63.2171 46.0155C63.2349 46.0296 63.2508 46.0526 63.2649 46.0845L63.4665 46.5355C63.2933 46.6875 63.0951 46.808 62.8723 46.8963C62.6529 46.9812 62.4318 47.0237 62.209 47.0237C61.8659 47.0237 61.5953 46.93 61.3972 46.7424C61.2027 46.5549 61.1018 46.2826 61.0947 45.9253ZM66.4088 46.2755C66.6669 46.2755 66.9004 46.2047 67.1092 46.0633C67.3214 45.9218 67.5018 45.7343 67.6504 45.5008C67.8025 45.2639 67.9192 44.9914 68.0006 44.6837C68.082 44.3759 68.1227 44.0541 68.1227 43.718C68.1227 43.2226 68.0237 42.8512 67.8255 42.6037C67.631 42.3524 67.3498 42.2269 66.9818 42.2269C66.72 42.2269 66.4831 42.2977 66.2708 42.4392C66.062 42.5771 65.8835 42.7628 65.7349 42.9963C65.5863 43.2298 65.4714 43.5004 65.39 43.8082C65.3086 44.1159 65.268 44.4377 65.268 44.7739C65.268 45.2692 65.3653 45.6441 65.5598 45.8988C65.7543 46.15 66.0373 46.2755 66.4088 46.2755ZM66.3186 47.0131C66.0249 47.0131 65.7561 46.9635 65.512 46.8645C65.268 46.7618 65.0576 46.6151 64.8806 46.4241C64.7037 46.2331 64.5657 45.9996 64.4667 45.7237C64.3678 45.4477 64.3182 45.1328 64.3182 44.7792C64.3182 44.3263 64.389 43.9002 64.5304 43.5004C64.6718 43.1006 64.8665 42.7522 65.1141 42.4551C65.3616 42.1545 65.6518 41.9173 65.9843 41.7441C66.3204 41.5708 66.6812 41.4841 67.0667 41.4841C67.3604 41.4841 67.6292 41.5353 67.8733 41.6379C68.1174 41.7369 68.3278 41.882 68.5047 42.0731C68.6816 42.2641 68.8196 42.4975 68.9186 42.7735C69.0176 43.0494 69.0671 43.3624 69.0671 43.7126C69.0671 44.1618 68.9963 44.5863 68.8549 44.9861C68.7135 45.3859 68.5188 45.7361 68.2712 46.0367C68.0271 46.3373 67.7372 46.5761 67.401 46.7531C67.0649 46.9263 66.7041 47.0131 66.3186 47.0131ZM74.399 46.2755C74.6574 46.2755 74.8908 46.2047 75.0994 46.0633C75.3116 45.9218 75.4921 45.7343 75.6406 45.5008C75.7929 45.2639 75.9096 44.9914 75.9908 44.6837C76.0723 44.3759 76.1129 44.0541 76.1129 43.718C76.1129 43.2226 76.0139 42.8512 75.8157 42.6037C75.6212 42.3524 75.34 42.2269 74.972 42.2269C74.7104 42.2269 74.4733 42.2977 74.261 42.4392C74.0525 42.5771 73.8737 42.7628 73.7251 42.9963C73.5765 43.2298 73.4616 43.5004 73.3802 43.8082C73.299 44.1159 73.2582 44.4377 73.2582 44.7739C73.2582 45.2692 73.3555 45.6441 73.55 45.8988C73.7447 46.15 74.0276 46.2755 74.399 46.2755ZM74.3088 47.0131C74.0153 47.0131 73.7463 46.9635 73.5023 46.8645C73.2582 46.7618 73.0478 46.6151 72.8708 46.4241C72.6941 46.2331 72.5561 45.9996 72.4569 45.7237C72.358 45.4477 72.3084 45.1328 72.3084 44.7792C72.3084 44.3263 72.3792 43.9002 72.5206 43.5004C72.6622 43.1006 72.8567 42.7522 73.1043 42.4551C73.352 42.1545 73.6421 41.9173 73.9745 41.7441C74.3106 41.5708 74.6714 41.4841 75.0569 41.4841C75.3506 41.4841 75.6194 41.5353 75.8635 41.6379C76.1076 41.7369 76.3182 41.882 76.4949 42.0731C76.6718 42.2641 76.8098 42.4975 76.9088 42.7735C77.008 43.0494 77.0574 43.3624 77.0574 43.7126C77.0574 44.1618 76.9867 44.5863 76.8451 44.9861C76.7037 45.3859 76.5092 45.7361 76.2614 46.0367C76.0174 46.3373 75.7274 46.5761 75.3912 46.7531C75.0553 46.9263 74.6945 47.0131 74.3088 47.0131ZM85.1888 41.5637L82.9337 46.9388H82.2174C82.1325 46.9388 82.0794 46.8786 82.0582 46.7584L81.4055 43.1131C81.3984 43.0528 81.3912 42.9963 81.3843 42.9433C81.3806 42.8867 81.3753 42.8284 81.3684 42.7682C81.3294 42.8849 81.287 43.0016 81.241 43.1184L79.6916 46.7584C79.6421 46.8786 79.5696 46.9388 79.4741 46.9388H78.7843L77.8398 41.5637H78.5455C78.6161 41.5637 78.6729 41.5814 78.7153 41.6167C78.7578 41.652 78.7859 41.6998 78.8002 41.76L79.2937 45.2196C79.3006 45.3435 79.3078 45.4637 79.3149 45.5804C79.3218 45.6971 79.3272 45.812 79.3308 45.9253C79.3696 45.812 79.4121 45.6971 79.4582 45.5804C79.5041 45.4637 79.5518 45.3435 79.6014 45.2196L81.0712 41.7388C81.0888 41.6857 81.1225 41.6414 81.172 41.6061C81.2214 41.5708 81.2763 41.5531 81.3365 41.5531H81.7292C81.7963 41.5531 81.8494 41.5708 81.8884 41.6061C81.9272 41.6414 81.9502 41.6857 81.9574 41.7388L82.5623 45.2196C82.5798 45.3435 82.5957 45.4637 82.61 45.5804C82.6241 45.6937 82.6365 45.8086 82.6472 45.9253C82.679 45.812 82.7125 45.6971 82.748 45.5804C82.7867 45.4637 82.8276 45.3435 82.87 45.2196L84.2337 41.76C84.2512 41.7035 84.2849 41.6573 84.3345 41.622C84.3876 41.5831 84.4441 41.5637 84.5043 41.5637H85.1888ZM86.761 42.922C87.0476 42.4479 87.3712 42.0908 87.732 41.8502C88.0929 41.6061 88.4643 41.4841 88.8463 41.4841C89.0727 41.4841 89.2708 41.53 89.4406 41.622C89.6139 41.7104 89.7537 41.8414 89.8598 42.0147C89.9694 42.188 90.0437 42.402 90.0827 42.6567C90.1216 42.908 90.1216 43.1945 90.0827 43.5163L89.6794 46.9388H88.7402L89.1435 43.5163C89.1931 43.0918 89.1665 42.7788 89.0639 42.5771C88.9612 42.372 88.772 42.2694 88.4961 42.2694C88.3263 42.2694 88.1531 42.3153 87.9761 42.4073C87.8029 42.4994 87.6347 42.6302 87.4721 42.8C87.3094 42.9698 87.1572 43.1749 87.0157 43.4155C86.8778 43.6524 86.7592 43.9177 86.6602 44.2114L86.3525 46.9388H85.408L86.0553 41.5584H86.5223C86.7345 41.5584 86.8406 41.6645 86.8406 41.8767L86.761 42.922ZM97.2051 42.2216C97.1272 42.2039 97.0494 42.1933 96.9716 42.1898C96.8974 42.1826 96.8231 42.1792 96.7488 42.1792C96.5365 42.1792 96.3312 42.2145 96.1333 42.2853C95.9351 42.3524 95.7494 42.448 95.5761 42.5718C95.4027 42.6957 95.2453 42.8443 95.1039 43.0175C94.9623 43.1873 94.8402 43.3749 94.7378 43.58C94.6386 43.7851 94.5608 44.0045 94.5043 44.2379C94.4476 44.4679 94.4194 44.7049 94.4194 44.949C94.4194 45.8014 94.6916 46.2277 95.2365 46.2277C95.4098 46.2277 95.5796 46.1747 95.7459 46.0686C95.9121 45.959 96.0696 45.8086 96.2182 45.6175C96.3702 45.4231 96.51 45.1949 96.6374 44.9331C96.7647 44.6677 96.8778 44.3777 96.9769 44.0628L97.2051 42.2216ZM96.8443 45.522C96.717 45.7484 96.579 45.9537 96.4304 46.1375C96.2853 46.3214 96.1296 46.479 95.9635 46.6098C95.8006 46.7371 95.6274 46.8361 95.4435 46.9069C95.2631 46.9777 95.0755 47.0131 94.881 47.0131C94.6688 47.0131 94.4759 46.9724 94.3027 46.891C94.1292 46.8061 93.9806 46.6841 93.8569 46.5249C93.7365 46.3622 93.6429 46.1641 93.5757 45.9306C93.5084 45.6937 93.4749 45.4231 93.4749 45.1188C93.4749 44.8004 93.5137 44.4908 93.5916 44.1902C93.6729 43.8859 93.7861 43.5994 93.9312 43.3306C94.0798 43.0618 94.2565 42.8159 94.4618 42.5931C94.6669 42.3667 94.8951 42.172 95.1463 42.0094C95.401 41.8431 95.6733 41.7157 95.9635 41.6273C96.2535 41.5353 96.5578 41.4894 96.8761 41.4894C97.1059 41.4894 97.3288 41.5088 97.5447 41.5477C97.7639 41.5831 97.9798 41.6467 98.1921 41.7388L97.55 46.9388H97.0618C96.938 46.9388 96.8531 46.9069 96.8072 46.8433C96.7647 46.7796 96.7435 46.7018 96.7435 46.6098L96.8443 45.522ZM102.879 42.7522C103.158 42.3349 103.468 42.02 103.807 41.8077C104.15 41.592 104.499 41.4841 104.852 41.4841C105.082 41.4841 105.284 41.53 105.457 41.622C105.631 41.7104 105.77 41.8414 105.877 42.0147C105.986 42.188 106.06 42.402 106.099 42.6567C106.138 42.908 106.138 43.1945 106.099 43.5163L105.696 46.9388H104.752L105.155 43.5163C105.208 43.0918 105.183 42.7769 105.081 42.5718C104.978 42.3667 104.787 42.2641 104.508 42.2641C104.348 42.2641 104.184 42.3084 104.014 42.3967C103.844 42.4816 103.68 42.6037 103.521 42.7628C103.365 42.922 103.216 43.1149 103.075 43.3412C102.937 43.5675 102.817 43.8206 102.714 44.1L102.369 46.9388H101.43L102.375 39.1228H103.319L102.879 42.7522ZM109.138 46.2755C109.396 46.2755 109.629 46.2047 109.838 46.0633C110.05 45.9218 110.231 45.7343 110.379 45.5008C110.531 45.2639 110.648 44.9914 110.729 44.6837C110.811 44.3759 110.851 44.0541 110.851 43.718C110.851 43.2226 110.752 42.8512 110.554 42.6037C110.36 42.3524 110.079 42.2269 109.711 42.2269C109.449 42.2269 109.212 42.2977 109 42.4392C108.791 42.5771 108.612 42.7628 108.464 42.9963C108.315 43.2298 108.2 43.5004 108.119 43.8082C108.037 44.1159 107.997 44.4377 107.997 44.7739C107.997 45.2692 108.094 45.6441 108.289 45.8988C108.483 46.15 108.766 46.2755 109.138 46.2755ZM109.047 47.0131C108.754 47.0131 108.485 46.9635 108.241 46.8645C107.997 46.7618 107.786 46.6151 107.609 46.4241C107.432 46.2331 107.294 45.9996 107.196 45.7237C107.097 45.4477 107.047 45.1328 107.047 44.7792C107.047 44.3263 107.118 43.9002 107.259 43.5004C107.401 43.1006 107.595 42.7522 107.843 42.4551C108.09 42.1545 108.381 41.9173 108.713 41.7441C109.049 41.5708 109.41 41.4841 109.796 41.4841C110.089 41.4841 110.358 41.5353 110.602 41.6379C110.846 41.7369 111.057 41.882 111.233 42.0731C111.41 42.2641 111.548 42.4975 111.647 42.7735C111.746 43.0494 111.796 43.3624 111.796 43.7126C111.796 44.1618 111.725 44.5863 111.584 44.9861C111.442 45.3859 111.248 45.7361 111 46.0367C110.756 46.3373 110.466 46.5761 110.13 46.7531C109.794 46.9263 109.433 47.0131 109.047 47.0131ZM117.41 41.5637L116.763 46.9388H116.296C116.066 46.9388 115.951 46.8255 115.951 46.5992L116.031 45.6175C115.748 46.0773 115.428 46.4259 115.07 46.6628C114.717 46.8963 114.352 47.0131 113.977 47.0131C113.751 47.0131 113.551 46.9688 113.378 46.8804C113.205 46.7884 113.063 46.6557 112.953 46.4824C112.847 46.3092 112.775 46.0969 112.736 45.8457C112.697 45.5945 112.699 45.3063 112.741 44.9808L113.144 41.5637H114.083L113.68 44.9808C113.631 45.4018 113.656 45.7149 113.755 45.92C113.857 46.1251 114.048 46.2277 114.328 46.2277C114.49 46.2277 114.658 46.1835 114.832 46.0951C115.005 46.0067 115.171 45.881 115.33 45.7184C115.49 45.5557 115.638 45.3594 115.776 45.1294C115.918 44.8959 116.038 44.6377 116.137 44.3547L116.471 41.5637H117.41ZM121.632 42.4233C121.604 42.4657 121.575 42.4975 121.547 42.5188C121.519 42.5365 121.483 42.5453 121.441 42.5453C121.391 42.5453 121.337 42.5259 121.276 42.4869C121.22 42.4479 121.149 42.4055 121.064 42.3596C120.983 42.31 120.882 42.2659 120.762 42.2269C120.641 42.1845 120.496 42.1633 120.327 42.1633C120.167 42.1633 120.022 42.1863 119.891 42.2322C119.761 42.2747 119.647 42.3349 119.552 42.4126C119.46 42.4904 119.387 42.5824 119.334 42.6886C119.285 42.7912 119.26 42.9008 119.26 43.0175C119.26 43.1839 119.315 43.3165 119.425 43.4155C119.534 43.5145 119.672 43.6012 119.838 43.6755C120.005 43.7463 120.183 43.8153 120.374 43.8824C120.565 43.9496 120.744 44.0345 120.91 44.1371C121.077 44.2398 121.215 44.3706 121.324 44.5298C121.434 44.689 121.489 44.8959 121.489 45.1506C121.489 45.3982 121.439 45.6353 121.34 45.8616C121.245 46.088 121.105 46.288 120.921 46.4612C120.74 46.631 120.521 46.7671 120.263 46.8698C120.008 46.9724 119.722 47.0237 119.403 47.0237C119.06 47.0237 118.756 46.9635 118.491 46.8433C118.229 46.7194 118.015 46.562 117.849 46.371L118.082 46.0102C118.114 45.9643 118.148 45.9288 118.183 45.9041C118.222 45.8794 118.271 45.8669 118.331 45.8669C118.388 45.8669 118.445 45.8916 118.501 45.9412C118.558 45.9908 118.629 46.0473 118.713 46.111C118.798 46.1712 118.905 46.2259 119.032 46.2755C119.163 46.3251 119.327 46.3498 119.525 46.3498C119.699 46.3498 119.854 46.3233 119.992 46.2702C120.134 46.2171 120.252 46.1463 120.348 46.0579C120.447 45.9696 120.521 45.8669 120.571 45.7502C120.624 45.63 120.65 45.5026 120.65 45.3682C120.65 45.1877 120.596 45.0445 120.486 44.9384C120.376 44.8322 120.238 44.7439 120.072 44.673C119.906 44.6022 119.727 44.5369 119.536 44.4767C119.345 44.4131 119.166 44.3335 119 44.2379C118.834 44.139 118.696 44.0116 118.586 43.8559C118.477 43.7002 118.422 43.4933 118.422 43.2351C118.422 43.0088 118.466 42.7912 118.554 42.5824C118.646 42.3702 118.777 42.1826 118.947 42.02C119.117 41.8573 119.322 41.7282 119.562 41.6326C119.807 41.5337 120.081 41.4841 120.385 41.4841C120.707 41.4841 120.99 41.539 121.234 41.6486C121.482 41.7547 121.694 41.8998 121.871 42.0837L121.632 42.4233ZM125.149 42.1686C124.926 42.1686 124.721 42.2145 124.533 42.3065C124.346 42.3986 124.179 42.5259 124.035 42.6886C123.889 42.8477 123.766 43.0369 123.663 43.2563C123.56 43.472 123.481 43.7055 123.424 43.9567C123.969 43.8896 124.406 43.8135 124.735 43.7286C125.064 43.6402 125.317 43.5463 125.494 43.4473C125.67 43.3447 125.787 43.2351 125.844 43.1184C125.9 43.0016 125.929 42.8796 125.929 42.7522C125.929 42.6886 125.914 42.6231 125.886 42.5559C125.858 42.4851 125.812 42.4214 125.748 42.3649C125.688 42.3084 125.609 42.2622 125.51 42.2269C125.41 42.188 125.29 42.1686 125.149 42.1686ZM126.645 45.9465C126.465 46.1341 126.288 46.2949 126.115 46.4294C125.941 46.5602 125.764 46.67 125.584 46.7584C125.407 46.8467 125.219 46.9104 125.021 46.9494C124.827 46.9918 124.616 47.0131 124.39 47.0131C124.082 47.0131 123.806 46.9618 123.562 46.8592C123.318 46.7565 123.111 46.6116 122.941 46.4241C122.772 46.2331 122.641 46.0031 122.549 45.7343C122.457 45.4655 122.411 45.1647 122.411 44.8322C122.411 44.5563 122.439 44.2822 122.496 44.0098C122.556 43.7339 122.641 43.472 122.75 43.2245C122.863 42.9769 123 42.7469 123.159 42.5347C123.322 42.3224 123.506 42.1402 123.711 41.9882C123.919 41.8324 124.148 41.7104 124.395 41.622C124.646 41.5337 124.915 41.4894 125.202 41.4894C125.474 41.4894 125.709 41.5284 125.908 41.6061C126.106 41.6839 126.268 41.7831 126.396 41.9033C126.523 42.0235 126.617 42.1561 126.677 42.3012C126.741 42.4463 126.772 42.5843 126.772 42.7151C126.772 42.9486 126.725 43.1643 126.629 43.3624C126.534 43.5569 126.359 43.7339 126.104 43.8931C125.849 44.0488 125.499 44.1849 125.053 44.3016C124.608 44.4184 124.035 44.512 123.334 44.5828C123.334 44.6218 123.332 44.6606 123.329 44.6996C123.329 44.7349 123.329 44.772 123.329 44.811C123.329 45.2851 123.431 45.6475 123.637 45.8988C123.845 46.1463 124.158 46.2702 124.576 46.2702C124.746 46.2702 124.896 46.2524 125.027 46.2171C125.161 46.1818 125.28 46.1394 125.382 46.0898C125.488 46.0367 125.58 45.9802 125.658 45.92C125.739 45.8563 125.812 45.7998 125.876 45.7502C125.943 45.6971 126.005 45.6528 126.061 45.6175C126.118 45.5822 126.175 45.5645 126.231 45.5645C126.298 45.5645 126.359 45.5945 126.412 45.6547L126.645 45.9465Z" fill="#333333"/>
<path d="M192.857 24.0816C196.013 24.0816 198.571 21.5233 198.571 18.3673C198.571 15.2114 196.013 12.6531 192.857 12.6531C189.701 12.6531 187.143 15.2114 187.143 18.3673C187.143 21.5233 189.701 24.0816 192.857 24.0816Z" stroke="#333333" stroke-width="0.4"/>
<path d="M191.976 20.177C191.976 20.3364 191.976 20.48 191.976 20.6075C191.979 20.7324 191.982 20.8465 191.984 20.9502C191.987 21.0353 192.017 21.0871 192.076 21.1057L192.49 21.2412L192.502 21.4406C192.207 21.4326 191.842 21.4286 191.406 21.4286C190.941 21.4286 190.527 21.4326 190.163 21.4406L190.143 21.2412L190.677 21.0937C190.743 21.0751 190.779 21.0339 190.784 20.9702C190.787 20.8639 190.788 20.7457 190.788 20.6155C190.791 20.4826 190.792 20.3364 190.792 20.177V17.0002C190.792 16.8673 190.791 16.7464 190.788 16.6374C190.788 16.5285 190.787 16.4288 190.784 16.3385C190.782 16.2694 190.75 16.2255 190.689 16.207L190.155 16.0515L190.143 15.8482C190.515 15.8588 190.896 15.8642 191.287 15.8642C191.369 15.8642 191.471 15.8628 191.594 15.8602C191.716 15.8548 191.865 15.8495 192.04 15.8442C192.199 15.8389 192.332 15.8349 192.439 15.8323C192.548 15.8296 192.633 15.8283 192.694 15.8283C193.377 15.8283 193.888 15.9425 194.228 16.1711C194.571 16.3996 194.742 16.7331 194.742 17.1715C194.742 17.5675 194.638 17.8877 194.428 18.1322C194.22 18.374 193.915 18.56 193.511 18.6902C193.734 19.0197 193.906 19.2868 194.025 19.4914C194.147 19.696 194.27 19.898 194.392 20.0973C194.514 20.2939 194.624 20.468 194.723 20.6194C194.823 20.7708 194.918 20.8904 195.006 20.9782C195.053 21.018 195.099 21.0526 195.141 21.0818C195.186 21.111 195.233 21.1363 195.281 21.1575C195.328 21.1788 195.379 21.1973 195.432 21.2133C195.488 21.2265 195.549 21.24 195.616 21.2533L195.631 21.4565C195.371 21.4937 195.073 21.5122 194.739 21.5122C194.473 21.5122 194.287 21.4951 194.18 21.4604C194.074 21.4259 193.98 21.3767 193.898 21.3131C193.775 21.2173 193.662 21.0924 193.559 20.9384C193.458 20.7841 193.35 20.6102 193.236 20.4161C193.122 20.2221 193.003 20.0162 192.881 19.7983C192.761 19.5804 192.635 19.3652 192.502 19.1526C192.462 19.0915 192.429 19.041 192.403 19.0011C192.379 18.9613 192.354 18.932 192.327 18.9134C192.303 18.8922 192.277 18.8775 192.247 18.8696C192.221 18.859 192.186 18.8523 192.144 18.8496L191.976 18.8457V20.177ZM191.976 18.4989C192.117 18.5068 192.245 18.5108 192.359 18.5108C192.736 18.5108 193.013 18.4165 193.188 18.2278C193.363 18.0365 193.451 17.7389 193.451 17.335C193.451 16.9443 193.366 16.66 193.196 16.482C193.029 16.3013 192.767 16.2109 192.411 16.2109C192.35 16.2109 192.283 16.2136 192.211 16.2189C192.142 16.2242 192.064 16.2322 191.976 16.2428V18.4989Z" fill="#333333"/>
</svg>
